<mxfile host="app.diagrams.net" modified="2023-09-01T03:21:38.431Z" agent="Mozilla/5.0 (Macintosh; Intel Mac OS X 10_15_7) AppleWebKit/537.36 (KHTML, like Gecko) Chrome/115.0.0.0 Safari/537.36 Edg/115.0.1901.203" etag="VkHg47c8Vb5huCARhw0X" version="21.7.1" type="github" pages="3">
  <diagram name="Page-1" id="42789a77-a242-8287-6e28-9cd8cfd52e62">
    <mxGraphModel dx="2126" dy="1510" grid="1" gridSize="10" guides="1" tooltips="1" connect="1" arrows="1" fold="1" page="1" pageScale="1" pageWidth="1100" pageHeight="850" background="none" math="0" shadow="0">
      <root>
        <mxCell id="0" />
        <mxCell id="1" parent="0" />
        <mxCell id="5yp0IVQzEzsZSfgx40zR-7" value="" style="rounded=1;whiteSpace=wrap;html=1;dashed=1;strokeWidth=3;" parent="1" vertex="1">
          <mxGeometry x="120" y="30" width="210" height="650" as="geometry" />
        </mxCell>
        <mxCell id="Ygh0pSW_p-VZ_udlIR_--34" value="" style="rounded=1;whiteSpace=wrap;html=1;dashed=1;strokeWidth=3;" parent="1" vertex="1">
          <mxGeometry x="370" y="70" width="600" height="410" as="geometry" />
        </mxCell>
        <mxCell id="xETN83zMiKG2h7DDWfaS-4" value="Func: Disc&lt;i&gt;onnect&lt;/i&gt;" style="rounded=1;whiteSpace=wrap;html=1;fontStyle=1;fontSize=14;" parent="1" vertex="1">
          <mxGeometry x="164" y="190" width="136" height="60" as="geometry" />
        </mxCell>
        <mxCell id="xETN83zMiKG2h7DDWfaS-5" value="Func:&amp;nbsp;&lt;i&gt;Subscribe&lt;/i&gt;" style="rounded=1;whiteSpace=wrap;html=1;fontStyle=1;fontSize=14;" parent="1" vertex="1">
          <mxGeometry x="164" y="290" width="136" height="60" as="geometry" />
        </mxCell>
        <mxCell id="xETN83zMiKG2h7DDWfaS-6" value="Func:&amp;nbsp;&lt;i&gt;Unsubscribe&amp;nbsp;&lt;/i&gt;" style="rounded=1;whiteSpace=wrap;html=1;fontStyle=1;fontSize=14;" parent="1" vertex="1">
          <mxGeometry x="164" y="390" width="136" height="60" as="geometry" />
        </mxCell>
        <mxCell id="xETN83zMiKG2h7DDWfaS-7" value="Func: &lt;i&gt;Publish&lt;/i&gt;" style="rounded=1;whiteSpace=wrap;html=1;fontStyle=1;fontSize=14;" parent="1" vertex="1">
          <mxGeometry x="164" y="490" width="136" height="60" as="geometry" />
        </mxCell>
        <mxCell id="xETN83zMiKG2h7DDWfaS-8" value="Func:&amp;nbsp;&lt;i&gt;Pubrel&lt;/i&gt;" style="rounded=1;whiteSpace=wrap;html=1;fontStyle=1;fontSize=14;" parent="1" vertex="1">
          <mxGeometry x="164" y="590" width="136" height="60" as="geometry" />
        </mxCell>
        <mxCell id="xETN83zMiKG2h7DDWfaS-12" value="&lt;b style=&quot;font-size: 22px;&quot;&gt;&lt;font style=&quot;font-size: 22px;&quot;&gt;Clients&lt;/font&gt;&lt;/b&gt;" style="text;strokeColor=none;align=center;fillColor=none;html=1;verticalAlign=middle;whiteSpace=wrap;rounded=0;aspect=fixed;fontSize=22;fontStyle=2" parent="1" vertex="1">
          <mxGeometry x="-30" y="240" width="60" height="30" as="geometry" />
        </mxCell>
        <mxCell id="xETN83zMiKG2h7DDWfaS-16" value="" style="group" parent="1" vertex="1" connectable="0">
          <mxGeometry x="-85" y="295" width="170" height="70" as="geometry" />
        </mxCell>
        <mxCell id="xETN83zMiKG2h7DDWfaS-15" value="" style="rounded=1;whiteSpace=wrap;html=1;dashed=1;strokeWidth=3;" parent="xETN83zMiKG2h7DDWfaS-16" vertex="1">
          <mxGeometry x="-10" y="-12.5" width="170" height="72.5" as="geometry" />
        </mxCell>
        <mxCell id="xETN83zMiKG2h7DDWfaS-11" value="" style="sketch=0;pointerEvents=1;shadow=0;dashed=0;html=1;strokeColor=none;labelPosition=center;verticalLabelPosition=bottom;verticalAlign=top;align=center;fillColor=#505050;shape=mxgraph.mscae.intune.account_portal;opacity=20;gradientColor=default;" parent="xETN83zMiKG2h7DDWfaS-16" vertex="1">
          <mxGeometry x="110" width="43" height="50" as="geometry" />
        </mxCell>
        <mxCell id="xETN83zMiKG2h7DDWfaS-3" value="" style="sketch=0;pointerEvents=1;shadow=0;dashed=0;html=1;strokeColor=none;labelPosition=center;verticalLabelPosition=bottom;verticalAlign=top;align=center;fillColor=#030303;shape=mxgraph.mscae.intune.account_portal;opacity=70;gradientColor=none;" parent="xETN83zMiKG2h7DDWfaS-16" vertex="1">
          <mxGeometry x="37" width="43" height="50" as="geometry" />
        </mxCell>
        <mxCell id="xETN83zMiKG2h7DDWfaS-2" value="" style="sketch=0;pointerEvents=1;shadow=0;dashed=0;html=1;strokeColor=none;labelPosition=center;verticalLabelPosition=bottom;verticalAlign=top;align=center;fillColor=#505050;shape=mxgraph.mscae.intune.account_portal;gradientColor=default;" parent="xETN83zMiKG2h7DDWfaS-16" vertex="1">
          <mxGeometry width="43" height="50" as="geometry" />
        </mxCell>
        <mxCell id="xETN83zMiKG2h7DDWfaS-10" value="" style="sketch=0;pointerEvents=1;shadow=0;dashed=0;html=1;strokeColor=none;labelPosition=center;verticalLabelPosition=bottom;verticalAlign=top;align=center;fillColor=#505050;shape=mxgraph.mscae.intune.account_portal;opacity=60;gradientColor=none;" parent="xETN83zMiKG2h7DDWfaS-16" vertex="1">
          <mxGeometry x="73" width="43" height="50" as="geometry" />
        </mxCell>
        <mxCell id="xETN83zMiKG2h7DDWfaS-24" value="" style="group;fontStyle=1;fontSize=14;" parent="1" vertex="1" connectable="0">
          <mxGeometry x="164" y="60" width="152" height="90" as="geometry" />
        </mxCell>
        <mxCell id="xETN83zMiKG2h7DDWfaS-20" value="&lt;i&gt;&amp;nbsp; &amp;nbsp; &amp;nbsp; Connect_...&lt;/i&gt;" style="rounded=1;whiteSpace=wrap;html=1;fontStyle=1;fontSize=14;" parent="xETN83zMiKG2h7DDWfaS-24" vertex="1">
          <mxGeometry x="32" width="120" height="60" as="geometry" />
        </mxCell>
        <mxCell id="xETN83zMiKG2h7DDWfaS-19" value="&lt;i&gt;&amp;nbsp; &amp;nbsp; &amp;nbsp; Connect_2&lt;/i&gt;" style="rounded=1;whiteSpace=wrap;html=1;opacity=80;fontStyle=1;fontSize=14;" parent="xETN83zMiKG2h7DDWfaS-24" vertex="1">
          <mxGeometry x="16" y="15" width="120" height="60" as="geometry" />
        </mxCell>
        <mxCell id="xETN83zMiKG2h7DDWfaS-1" value="Func: &lt;i&gt;Connect_1&lt;/i&gt;" style="rounded=1;whiteSpace=wrap;html=1;opacity=70;fontStyle=1;fontSize=14;" parent="xETN83zMiKG2h7DDWfaS-24" vertex="1">
          <mxGeometry y="30" width="120" height="60" as="geometry" />
        </mxCell>
        <mxCell id="Qss3d2yj_IPICVlPv0A1-1" value="" style="edgeStyle=none;rounded=1;html=1;labelBackgroundColor=none;startArrow=none;startFill=0;startSize=5;endArrow=classicThin;endFill=1;endSize=5;jettySize=auto;orthogonalLoop=1;strokeColor=#B3B3B3;strokeWidth=1;fontFamily=Verdana;fontSize=12;exitX=1;exitY=0.5;exitDx=0;exitDy=0;entryX=0;entryY=0.5;entryDx=0;entryDy=0;" parent="1" source="xETN83zMiKG2h7DDWfaS-15" target="xETN83zMiKG2h7DDWfaS-1" edge="1">
          <mxGeometry relative="1" as="geometry">
            <mxPoint x="73" y="434" as="sourcePoint" />
            <mxPoint x="-105" y="510" as="targetPoint" />
          </mxGeometry>
        </mxCell>
        <mxCell id="Qss3d2yj_IPICVlPv0A1-2" value="" style="edgeStyle=none;rounded=1;html=1;labelBackgroundColor=none;startArrow=none;startFill=0;startSize=5;endArrow=classicThin;endFill=1;endSize=5;jettySize=auto;orthogonalLoop=1;strokeColor=#B3B3B3;strokeWidth=1;fontFamily=Verdana;fontSize=12;entryX=0;entryY=0.5;entryDx=0;entryDy=0;exitX=1;exitY=0.5;exitDx=0;exitDy=0;" parent="1" source="xETN83zMiKG2h7DDWfaS-15" target="xETN83zMiKG2h7DDWfaS-4" edge="1">
          <mxGeometry relative="1" as="geometry">
            <mxPoint x="10" y="320" as="sourcePoint" />
            <mxPoint x="174" y="130" as="targetPoint" />
          </mxGeometry>
        </mxCell>
        <mxCell id="Qss3d2yj_IPICVlPv0A1-3" value="" style="edgeStyle=none;rounded=1;html=1;labelBackgroundColor=none;startArrow=none;startFill=0;startSize=5;endArrow=classicThin;endFill=1;endSize=5;jettySize=auto;orthogonalLoop=1;strokeColor=#B3B3B3;strokeWidth=1;fontFamily=Verdana;fontSize=12;entryX=0;entryY=0.5;entryDx=0;entryDy=0;exitX=1;exitY=0.5;exitDx=0;exitDy=0;" parent="1" source="xETN83zMiKG2h7DDWfaS-15" target="xETN83zMiKG2h7DDWfaS-5" edge="1">
          <mxGeometry relative="1" as="geometry">
            <mxPoint x="10" y="320" as="sourcePoint" />
            <mxPoint x="174" y="230" as="targetPoint" />
          </mxGeometry>
        </mxCell>
        <mxCell id="Qss3d2yj_IPICVlPv0A1-4" value="" style="edgeStyle=none;rounded=1;html=1;labelBackgroundColor=none;startArrow=none;startFill=0;startSize=5;endArrow=classicThin;endFill=1;endSize=5;jettySize=auto;orthogonalLoop=1;strokeColor=#B3B3B3;strokeWidth=1;fontFamily=Verdana;fontSize=12;entryX=0;entryY=0.5;entryDx=0;entryDy=0;exitX=1;exitY=0.5;exitDx=0;exitDy=0;" parent="1" source="xETN83zMiKG2h7DDWfaS-15" target="xETN83zMiKG2h7DDWfaS-6" edge="1">
          <mxGeometry relative="1" as="geometry">
            <mxPoint y="320" as="sourcePoint" />
            <mxPoint x="174" y="330" as="targetPoint" />
          </mxGeometry>
        </mxCell>
        <mxCell id="Qss3d2yj_IPICVlPv0A1-5" value="" style="edgeStyle=none;rounded=1;html=1;labelBackgroundColor=none;startArrow=none;startFill=0;startSize=5;endArrow=classicThin;endFill=1;endSize=5;jettySize=auto;orthogonalLoop=1;strokeColor=#B3B3B3;strokeWidth=1;fontFamily=Verdana;fontSize=12;entryX=0;entryY=0.5;entryDx=0;entryDy=0;exitX=1;exitY=0.5;exitDx=0;exitDy=0;" parent="1" source="xETN83zMiKG2h7DDWfaS-15" target="xETN83zMiKG2h7DDWfaS-7" edge="1">
          <mxGeometry relative="1" as="geometry">
            <mxPoint x="20" y="330" as="sourcePoint" />
            <mxPoint x="174" y="430" as="targetPoint" />
          </mxGeometry>
        </mxCell>
        <mxCell id="Qss3d2yj_IPICVlPv0A1-6" value="" style="edgeStyle=none;rounded=1;html=1;labelBackgroundColor=none;startArrow=none;startFill=0;startSize=5;endArrow=classicThin;endFill=1;endSize=5;jettySize=auto;orthogonalLoop=1;strokeColor=#B3B3B3;strokeWidth=1;fontFamily=Verdana;fontSize=12;entryX=0;entryY=0.5;entryDx=0;entryDy=0;exitX=1;exitY=0.5;exitDx=0;exitDy=0;" parent="1" source="xETN83zMiKG2h7DDWfaS-15" target="xETN83zMiKG2h7DDWfaS-8" edge="1">
          <mxGeometry relative="1" as="geometry">
            <mxPoint y="320" as="sourcePoint" />
            <mxPoint x="174" y="530" as="targetPoint" />
          </mxGeometry>
        </mxCell>
        <mxCell id="Ygh0pSW_p-VZ_udlIR_--28" value="" style="edgeStyle=none;rounded=1;html=1;labelBackgroundColor=none;startArrow=none;startFill=0;startSize=5;endArrow=classicThin;endFill=1;endSize=5;jettySize=auto;orthogonalLoop=1;strokeColor=#B3B3B3;strokeWidth=1;fontFamily=Verdana;fontSize=14;exitX=1;exitY=0.5;exitDx=0;exitDy=0;entryX=0;entryY=0.5;entryDx=0;entryDy=0;" parent="1" source="xETN83zMiKG2h7DDWfaS-20" edge="1">
          <mxGeometry relative="1" as="geometry">
            <mxPoint x="20" y="329" as="sourcePoint" />
            <mxPoint x="370" y="272" as="targetPoint" />
          </mxGeometry>
        </mxCell>
        <mxCell id="Ygh0pSW_p-VZ_udlIR_--29" value="" style="edgeStyle=none;rounded=1;html=1;labelBackgroundColor=none;startArrow=none;startFill=0;startSize=5;endArrow=classicThin;endFill=1;endSize=5;jettySize=auto;orthogonalLoop=1;strokeColor=#B3B3B3;strokeWidth=1;fontFamily=Verdana;fontSize=14;entryX=0;entryY=0.5;entryDx=0;entryDy=0;exitX=1;exitY=0.5;exitDx=0;exitDy=0;" parent="1" source="xETN83zMiKG2h7DDWfaS-4" edge="1">
          <mxGeometry relative="1" as="geometry">
            <mxPoint x="20" y="330" as="sourcePoint" />
            <mxPoint x="370" y="272" as="targetPoint" />
          </mxGeometry>
        </mxCell>
        <mxCell id="Ygh0pSW_p-VZ_udlIR_--30" value="" style="edgeStyle=none;rounded=1;html=1;labelBackgroundColor=none;startArrow=none;startFill=0;startSize=5;endArrow=classicThin;endFill=1;endSize=5;jettySize=auto;orthogonalLoop=1;strokeColor=#B3B3B3;strokeWidth=1;fontFamily=Verdana;fontSize=14;exitX=1;exitY=0.5;exitDx=0;exitDy=0;entryX=0;entryY=0.5;entryDx=0;entryDy=0;" parent="1" source="xETN83zMiKG2h7DDWfaS-5" edge="1">
          <mxGeometry relative="1" as="geometry">
            <mxPoint x="294" y="230" as="sourcePoint" />
            <mxPoint x="370" y="272" as="targetPoint" />
          </mxGeometry>
        </mxCell>
        <mxCell id="Ygh0pSW_p-VZ_udlIR_--31" value="" style="edgeStyle=none;rounded=1;html=1;labelBackgroundColor=none;startArrow=none;startFill=0;startSize=5;endArrow=classicThin;endFill=1;endSize=5;jettySize=auto;orthogonalLoop=1;strokeColor=#B3B3B3;strokeWidth=1;fontFamily=Verdana;fontSize=14;exitX=1;exitY=0.5;exitDx=0;exitDy=0;entryX=0;entryY=0.5;entryDx=0;entryDy=0;" parent="1" source="xETN83zMiKG2h7DDWfaS-6" edge="1">
          <mxGeometry relative="1" as="geometry">
            <mxPoint x="294" y="330" as="sourcePoint" />
            <mxPoint x="370" y="272" as="targetPoint" />
          </mxGeometry>
        </mxCell>
        <mxCell id="Ygh0pSW_p-VZ_udlIR_--32" value="" style="edgeStyle=none;rounded=1;html=1;labelBackgroundColor=none;startArrow=none;startFill=0;startSize=5;endArrow=classicThin;endFill=1;endSize=5;jettySize=auto;orthogonalLoop=1;strokeColor=#B3B3B3;strokeWidth=1;fontFamily=Verdana;fontSize=14;exitX=1;exitY=0.5;exitDx=0;exitDy=0;entryX=0;entryY=0.5;entryDx=0;entryDy=0;" parent="1" source="xETN83zMiKG2h7DDWfaS-7" edge="1">
          <mxGeometry relative="1" as="geometry">
            <mxPoint x="304" y="340" as="sourcePoint" />
            <mxPoint x="370" y="272" as="targetPoint" />
          </mxGeometry>
        </mxCell>
        <mxCell id="Ygh0pSW_p-VZ_udlIR_--33" value="" style="edgeStyle=none;rounded=1;html=1;labelBackgroundColor=none;startArrow=none;startFill=0;startSize=5;endArrow=classicThin;endFill=1;endSize=5;jettySize=auto;orthogonalLoop=1;strokeColor=#B3B3B3;strokeWidth=1;fontFamily=Verdana;fontSize=14;exitX=1;exitY=0.5;exitDx=0;exitDy=0;entryX=0;entryY=0.5;entryDx=0;entryDy=0;" parent="1" source="xETN83zMiKG2h7DDWfaS-8" edge="1">
          <mxGeometry relative="1" as="geometry">
            <mxPoint x="314" y="350" as="sourcePoint" />
            <mxPoint x="370" y="272" as="targetPoint" />
          </mxGeometry>
        </mxCell>
        <mxCell id="5yp0IVQzEzsZSfgx40zR-10" value="&lt;b style=&quot;font-size: 22px;&quot;&gt;&lt;font style=&quot;font-size: 22px;&quot;&gt;&lt;i&gt;Transition Functions&lt;/i&gt;&lt;/font&gt;&lt;/b&gt;" style="text;strokeColor=none;align=center;fillColor=none;html=1;verticalAlign=middle;whiteSpace=wrap;rounded=0;aspect=fixed;fontSize=22;" parent="1" vertex="1">
          <mxGeometry x="107" y="-58" width="236" height="118" as="geometry" />
        </mxCell>
        <mxCell id="5yp0IVQzEzsZSfgx40zR-11" value="&lt;b&gt;&lt;i&gt;State Machine&lt;/i&gt;&lt;/b&gt;" style="text;strokeColor=none;align=center;fillColor=none;html=1;verticalAlign=middle;whiteSpace=wrap;rounded=0;aspect=fixed;fontSize=22;" parent="1" vertex="1">
          <mxGeometry x="529.5" y="-58" width="236" height="118" as="geometry" />
        </mxCell>
        <mxCell id="rTMQDeSfpLFrqbZm5bAi-1" value="" style="group" vertex="1" connectable="0" parent="1">
          <mxGeometry x="400" y="107" width="540" height="318" as="geometry" />
        </mxCell>
        <mxCell id="rTMQDeSfpLFrqbZm5bAi-2" style="edgeStyle=none;rounded=1;html=1;labelBackgroundColor=none;startArrow=none;startFill=0;startSize=5;endArrow=classicThin;endFill=1;endSize=5;jettySize=auto;orthogonalLoop=1;strokeColor=#B3B3B3;strokeWidth=1;fontFamily=Verdana;fontSize=12" edge="1" parent="rTMQDeSfpLFrqbZm5bAi-1" target="rTMQDeSfpLFrqbZm5bAi-5">
          <mxGeometry relative="1" as="geometry">
            <mxPoint x="183.67346938775506" y="197.6756756756757" as="sourcePoint" />
          </mxGeometry>
        </mxCell>
        <mxCell id="rTMQDeSfpLFrqbZm5bAi-3" value="Action 1:&lt;b&gt;&lt;i&gt;Connect&lt;/i&gt;&lt;/b&gt;" style="edgeStyle=none;rounded=1;html=1;labelBackgroundColor=none;startArrow=none;startFill=0;startSize=5;endArrow=classicThin;endFill=1;endSize=5;jettySize=auto;orthogonalLoop=1;strokeColor=#B3B3B3;strokeWidth=1;fontFamily=Verdana;fontSize=12" edge="1" parent="rTMQDeSfpLFrqbZm5bAi-1" target="rTMQDeSfpLFrqbZm5bAi-19">
          <mxGeometry x="0.0038" relative="1" as="geometry">
            <mxPoint as="offset" />
            <mxPoint x="163.83673469387753" y="174.4702702702703" as="sourcePoint" />
          </mxGeometry>
        </mxCell>
        <mxCell id="rTMQDeSfpLFrqbZm5bAi-4" value="Action 2:&lt;b&gt;&lt;i&gt;Publish&lt;/i&gt;&lt;/b&gt;" style="edgeStyle=none;rounded=1;html=1;labelBackgroundColor=none;startArrow=none;startFill=0;startSize=5;endArrow=classicThin;endFill=1;endSize=5;jettySize=auto;orthogonalLoop=1;strokeColor=#B3B3B3;strokeWidth=1;fontFamily=Verdana;fontSize=12" edge="1" parent="rTMQDeSfpLFrqbZm5bAi-1" target="rTMQDeSfpLFrqbZm5bAi-6">
          <mxGeometry relative="1" as="geometry">
            <mxPoint x="168.97959183673467" y="219.16216216216216" as="sourcePoint" />
          </mxGeometry>
        </mxCell>
        <mxCell id="rTMQDeSfpLFrqbZm5bAi-5" value="&lt;span&gt;State 3&lt;/span&gt;" style="ellipse;whiteSpace=wrap;html=1;rounded=0;shadow=1;comic=0;labelBackgroundColor=none;strokeWidth=1;fontFamily=Verdana;fontSize=12;align=center;" vertex="1" parent="rTMQDeSfpLFrqbZm5bAi-1">
          <mxGeometry x="205.7142857142857" y="176.1891891891892" width="55.10204081632652" height="42.972972972972975" as="geometry" />
        </mxCell>
        <mxCell id="rTMQDeSfpLFrqbZm5bAi-6" value="&lt;span&gt;State 4&lt;/span&gt;" style="ellipse;whiteSpace=wrap;html=1;rounded=0;shadow=1;comic=0;labelBackgroundColor=none;strokeWidth=1;fontFamily=Verdana;fontSize=12;align=center;" vertex="1" parent="rTMQDeSfpLFrqbZm5bAi-1">
          <mxGeometry x="205.7142857142857" y="275.0270270270271" width="55.10204081632652" height="42.972972972972975" as="geometry" />
        </mxCell>
        <mxCell id="rTMQDeSfpLFrqbZm5bAi-7" value="" style="ellipse;whiteSpace=wrap;html=1;rounded=0;shadow=1;comic=0;labelBackgroundColor=none;strokeWidth=1;fontFamily=Verdana;fontSize=12;align=center;" vertex="1" parent="rTMQDeSfpLFrqbZm5bAi-1">
          <mxGeometry x="293.87755102040813" y="275.0270270270271" width="55.10204081632652" height="42.972972972972975" as="geometry" />
        </mxCell>
        <mxCell id="rTMQDeSfpLFrqbZm5bAi-8" value="" style="edgeStyle=none;rounded=1;html=1;labelBackgroundColor=none;startArrow=none;startFill=0;startSize=5;endArrow=classicThin;endFill=1;endSize=5;jettySize=auto;orthogonalLoop=1;strokeColor=#B3B3B3;strokeWidth=1;fontFamily=Verdana;fontSize=12" edge="1" parent="rTMQDeSfpLFrqbZm5bAi-1" source="rTMQDeSfpLFrqbZm5bAi-6" target="rTMQDeSfpLFrqbZm5bAi-7">
          <mxGeometry relative="1" as="geometry" />
        </mxCell>
        <mxCell id="rTMQDeSfpLFrqbZm5bAi-9" value="" style="ellipse;whiteSpace=wrap;html=1;rounded=0;shadow=1;comic=0;labelBackgroundColor=none;strokeWidth=1;fontFamily=Verdana;fontSize=12;align=center;" vertex="1" parent="rTMQDeSfpLFrqbZm5bAi-1">
          <mxGeometry x="374.69387755102036" y="275.0270270270271" width="55.10204081632652" height="42.972972972972975" as="geometry" />
        </mxCell>
        <mxCell id="rTMQDeSfpLFrqbZm5bAi-10" value="" style="edgeStyle=none;rounded=1;html=1;labelBackgroundColor=none;startArrow=none;startFill=0;startSize=5;endArrow=classicThin;endFill=1;endSize=5;jettySize=auto;orthogonalLoop=1;strokeColor=#B3B3B3;strokeWidth=1;fontFamily=Verdana;fontSize=12" edge="1" parent="rTMQDeSfpLFrqbZm5bAi-1" source="rTMQDeSfpLFrqbZm5bAi-7" target="rTMQDeSfpLFrqbZm5bAi-9">
          <mxGeometry relative="1" as="geometry" />
        </mxCell>
        <mxCell id="rTMQDeSfpLFrqbZm5bAi-11" value="" style="ellipse;whiteSpace=wrap;html=1;rounded=0;shadow=1;comic=0;labelBackgroundColor=none;strokeWidth=1;fontFamily=Verdana;fontSize=12;align=center;" vertex="1" parent="rTMQDeSfpLFrqbZm5bAi-1">
          <mxGeometry x="293.87755102040813" y="206.2702702702703" width="55.10204081632652" height="42.972972972972975" as="geometry" />
        </mxCell>
        <mxCell id="rTMQDeSfpLFrqbZm5bAi-12" value="" style="edgeStyle=none;rounded=1;html=1;labelBackgroundColor=none;startArrow=none;startFill=0;startSize=5;endArrow=classicThin;endFill=1;endSize=5;jettySize=auto;orthogonalLoop=1;strokeColor=#B3B3B3;strokeWidth=1;fontFamily=Verdana;fontSize=12" edge="1" parent="rTMQDeSfpLFrqbZm5bAi-1" source="rTMQDeSfpLFrqbZm5bAi-5" target="rTMQDeSfpLFrqbZm5bAi-11">
          <mxGeometry relative="1" as="geometry" />
        </mxCell>
        <mxCell id="rTMQDeSfpLFrqbZm5bAi-13" value="" style="ellipse;whiteSpace=wrap;html=1;rounded=0;shadow=1;comic=0;labelBackgroundColor=none;strokeWidth=3;fontFamily=Verdana;fontSize=12;align=center;dashed=1;dashPattern=1 1;strokeColor=#FF0000;" vertex="1" parent="rTMQDeSfpLFrqbZm5bAi-1">
          <mxGeometry x="293.87755102040813" y="103.13513513513514" width="55.10204081632652" height="42.972972972972975" as="geometry" />
        </mxCell>
        <mxCell id="rTMQDeSfpLFrqbZm5bAi-14" value="" style="edgeStyle=none;rounded=1;html=1;labelBackgroundColor=none;startArrow=none;startFill=0;startSize=5;endArrow=classicThin;endFill=1;endSize=5;jettySize=auto;orthogonalLoop=1;strokeColor=#B3B3B3;strokeWidth=1;fontFamily=Verdana;fontSize=12" edge="1" parent="rTMQDeSfpLFrqbZm5bAi-1" source="rTMQDeSfpLFrqbZm5bAi-5" target="rTMQDeSfpLFrqbZm5bAi-13">
          <mxGeometry relative="1" as="geometry" />
        </mxCell>
        <mxCell id="rTMQDeSfpLFrqbZm5bAi-15" value="" style="ellipse;whiteSpace=wrap;html=1;rounded=0;shadow=1;comic=0;labelBackgroundColor=none;strokeWidth=1;fontFamily=Verdana;fontSize=12;align=center;" vertex="1" parent="rTMQDeSfpLFrqbZm5bAi-1">
          <mxGeometry x="374.69387755102036" y="150.40540540540542" width="55.10204081632652" height="42.972972972972975" as="geometry" />
        </mxCell>
        <mxCell id="rTMQDeSfpLFrqbZm5bAi-16" value="" style="edgeStyle=none;rounded=1;html=1;labelBackgroundColor=none;startArrow=none;startFill=0;startSize=5;endArrow=classicThin;endFill=1;endSize=5;jettySize=auto;orthogonalLoop=1;strokeColor=#B3B3B3;strokeWidth=1;fontFamily=Verdana;fontSize=12" edge="1" parent="rTMQDeSfpLFrqbZm5bAi-1" source="rTMQDeSfpLFrqbZm5bAi-11" target="rTMQDeSfpLFrqbZm5bAi-15">
          <mxGeometry relative="1" as="geometry" />
        </mxCell>
        <mxCell id="rTMQDeSfpLFrqbZm5bAi-17" value="" style="edgeStyle=none;rounded=1;html=1;labelBackgroundColor=none;startArrow=none;startFill=0;startSize=5;endArrow=classicThin;endFill=1;endSize=5;jettySize=auto;orthogonalLoop=1;strokeColor=#B3B3B3;strokeWidth=1;fontFamily=Verdana;fontSize=12" edge="1" parent="rTMQDeSfpLFrqbZm5bAi-1" source="rTMQDeSfpLFrqbZm5bAi-13" target="rTMQDeSfpLFrqbZm5bAi-15">
          <mxGeometry relative="1" as="geometry" />
        </mxCell>
        <mxCell id="rTMQDeSfpLFrqbZm5bAi-18" value="" style="edgeStyle=none;rounded=1;html=1;labelBackgroundColor=none;startArrow=none;startFill=0;startSize=5;endArrow=classicThin;endFill=1;endSize=5;jettySize=auto;orthogonalLoop=1;strokeColor=#B3B3B3;strokeWidth=1;fontFamily=Verdana;fontSize=12;entryX=0;entryY=0.5;entryDx=0;entryDy=0;" edge="1" parent="rTMQDeSfpLFrqbZm5bAi-1" source="rTMQDeSfpLFrqbZm5bAi-19" target="rTMQDeSfpLFrqbZm5bAi-13">
          <mxGeometry relative="1" as="geometry" />
        </mxCell>
        <mxCell id="rTMQDeSfpLFrqbZm5bAi-19" value="State 2" style="ellipse;whiteSpace=wrap;html=1;rounded=0;shadow=1;comic=0;labelBackgroundColor=none;strokeWidth=1;fontFamily=Verdana;fontSize=12;align=center;" vertex="1" parent="rTMQDeSfpLFrqbZm5bAi-1">
          <mxGeometry x="198.36734693877548" y="42.972972972972975" width="55.10204081632652" height="42.972972972972975" as="geometry" />
        </mxCell>
        <mxCell id="rTMQDeSfpLFrqbZm5bAi-20" value="" style="ellipse;whiteSpace=wrap;html=1;rounded=0;shadow=1;comic=0;labelBackgroundColor=none;strokeWidth=1;fontFamily=Verdana;fontSize=12;align=center;" vertex="1" parent="rTMQDeSfpLFrqbZm5bAi-1">
          <mxGeometry x="286.5306122448979" width="55.10204081632652" height="42.972972972972975" as="geometry" />
        </mxCell>
        <mxCell id="rTMQDeSfpLFrqbZm5bAi-21" value="" style="ellipse;whiteSpace=wrap;html=1;rounded=0;shadow=1;comic=0;labelBackgroundColor=none;strokeWidth=3;fontFamily=Verdana;fontSize=12;align=center;dashed=1;dashPattern=1 1;strokeColor=#FF0000;" vertex="1" parent="rTMQDeSfpLFrqbZm5bAi-1">
          <mxGeometry x="374.69387755102036" width="55.10204081632652" height="42.972972972972975" as="geometry" />
        </mxCell>
        <mxCell id="rTMQDeSfpLFrqbZm5bAi-22" value="" style="edgeStyle=none;rounded=1;html=1;labelBackgroundColor=none;startArrow=none;startFill=0;startSize=5;endArrow=classicThin;endFill=1;endSize=5;jettySize=auto;orthogonalLoop=1;strokeColor=#B3B3B3;strokeWidth=1;fontFamily=Verdana;fontSize=12" edge="1" parent="rTMQDeSfpLFrqbZm5bAi-1" source="rTMQDeSfpLFrqbZm5bAi-20" target="rTMQDeSfpLFrqbZm5bAi-21">
          <mxGeometry relative="1" as="geometry" />
        </mxCell>
        <mxCell id="rTMQDeSfpLFrqbZm5bAi-23" value="" style="edgeStyle=none;rounded=1;html=1;labelBackgroundColor=none;startArrow=none;startFill=0;startSize=5;endArrow=classicThin;endFill=1;endSize=5;jettySize=auto;orthogonalLoop=1;strokeColor=#B3B3B3;strokeWidth=1;fontFamily=Verdana;fontSize=12;entryX=0;entryY=0.5;entryDx=0;entryDy=0;exitX=1;exitY=0;exitDx=0;exitDy=0;" edge="1" parent="rTMQDeSfpLFrqbZm5bAi-1" source="rTMQDeSfpLFrqbZm5bAi-19" target="rTMQDeSfpLFrqbZm5bAi-20">
          <mxGeometry relative="1" as="geometry">
            <mxPoint x="277.71428571428567" y="119.46486486486488" as="sourcePoint" />
            <mxPoint x="352.65306122448976" y="159" as="targetPoint" />
          </mxGeometry>
        </mxCell>
        <mxCell id="rTMQDeSfpLFrqbZm5bAi-24" value="" style="ellipse;whiteSpace=wrap;html=1;rounded=0;shadow=1;comic=0;labelBackgroundColor=none;strokeWidth=1;fontFamily=Verdana;fontSize=12;align=center;dashed=1;dashPattern=1 2;" vertex="1" parent="rTMQDeSfpLFrqbZm5bAi-1">
          <mxGeometry x="484.8979591836734" width="55.10204081632652" height="42.972972972972975" as="geometry" />
        </mxCell>
        <mxCell id="rTMQDeSfpLFrqbZm5bAi-25" value="" style="edgeStyle=none;rounded=1;html=1;labelBackgroundColor=none;startArrow=none;startFill=0;startSize=5;endArrow=classicThin;endFill=1;endSize=5;jettySize=auto;orthogonalLoop=1;strokeColor=#B3B3B3;strokeWidth=1;fontFamily=Verdana;fontSize=12;exitX=1;exitY=0.5;exitDx=0;exitDy=0;entryX=0;entryY=0.5;entryDx=0;entryDy=0;dashed=1;dashPattern=1 2;" edge="1" parent="rTMQDeSfpLFrqbZm5bAi-1" source="rTMQDeSfpLFrqbZm5bAi-21" target="rTMQDeSfpLFrqbZm5bAi-24">
          <mxGeometry relative="1" as="geometry">
            <mxPoint x="407.75510204081627" y="47.270270270270274" as="sourcePoint" />
            <mxPoint x="462.8571428571428" y="47.270270270270274" as="targetPoint" />
          </mxGeometry>
        </mxCell>
        <mxCell id="rTMQDeSfpLFrqbZm5bAi-26" value="" style="ellipse;whiteSpace=wrap;html=1;rounded=0;shadow=1;comic=0;labelBackgroundColor=none;strokeWidth=1;fontFamily=Verdana;fontSize=12;align=center;dashed=1;dashPattern=1 2;" vertex="1" parent="rTMQDeSfpLFrqbZm5bAi-1">
          <mxGeometry x="484.8979591836734" y="107.43243243243245" width="55.10204081632652" height="42.972972972972975" as="geometry" />
        </mxCell>
        <mxCell id="rTMQDeSfpLFrqbZm5bAi-27" value="" style="edgeStyle=none;rounded=1;html=1;labelBackgroundColor=none;startArrow=none;startFill=0;startSize=5;endArrow=classicThin;endFill=1;endSize=5;jettySize=auto;orthogonalLoop=1;strokeColor=#B3B3B3;strokeWidth=1;fontFamily=Verdana;fontSize=12;exitX=1;exitY=0.5;exitDx=0;exitDy=0;entryX=0;entryY=0.5;entryDx=0;entryDy=0;dashed=1;dashPattern=1 2;" edge="1" parent="rTMQDeSfpLFrqbZm5bAi-1" source="rTMQDeSfpLFrqbZm5bAi-15" target="rTMQDeSfpLFrqbZm5bAi-26">
          <mxGeometry relative="1" as="geometry">
            <mxPoint x="429.79591836734687" y="128.91891891891893" as="sourcePoint" />
            <mxPoint x="462.8571428571428" y="154.7027027027027" as="targetPoint" />
          </mxGeometry>
        </mxCell>
        <mxCell id="rTMQDeSfpLFrqbZm5bAi-28" value="" style="ellipse;whiteSpace=wrap;html=1;rounded=0;shadow=1;comic=0;labelBackgroundColor=none;strokeWidth=1;fontFamily=Verdana;fontSize=12;align=center;dashed=1;dashPattern=1 2;" vertex="1" parent="rTMQDeSfpLFrqbZm5bAi-1">
          <mxGeometry x="484.8979591836734" y="210.56756756756758" width="55.10204081632652" height="42.972972972972975" as="geometry" />
        </mxCell>
        <mxCell id="rTMQDeSfpLFrqbZm5bAi-29" value="" style="edgeStyle=none;rounded=1;html=1;labelBackgroundColor=none;startArrow=none;startFill=0;startSize=5;endArrow=classicThin;endFill=1;endSize=5;jettySize=auto;orthogonalLoop=1;strokeColor=#B3B3B3;strokeWidth=1;fontFamily=Verdana;fontSize=12;exitX=1;exitY=0.5;exitDx=0;exitDy=0;entryX=0;entryY=0.5;entryDx=0;entryDy=0;dashed=1;dashPattern=1 2;" edge="1" parent="rTMQDeSfpLFrqbZm5bAi-1" source="rTMQDeSfpLFrqbZm5bAi-15" target="rTMQDeSfpLFrqbZm5bAi-28">
          <mxGeometry relative="1" as="geometry">
            <mxPoint x="429.79591836734687" y="275.0270270270271" as="sourcePoint" />
            <mxPoint x="462.8571428571428" y="257.83783783783787" as="targetPoint" />
          </mxGeometry>
        </mxCell>
        <mxCell id="rTMQDeSfpLFrqbZm5bAi-30" value="&lt;b&gt;Starting&lt;br&gt;State&lt;/b&gt;" style="ellipse;whiteSpace=wrap;html=1;rounded=0;shadow=1;comic=0;labelBackgroundColor=none;strokeWidth=1;fontFamily=Verdana;fontSize=12;align=center;" vertex="1" parent="rTMQDeSfpLFrqbZm5bAi-1">
          <mxGeometry x="117.55102040816325" y="171.8918918918919" width="66.12244897959182" height="51.56756756756757" as="geometry" />
        </mxCell>
        <mxCell id="rTMQDeSfpLFrqbZm5bAi-31" value="State 1" style="ellipse;whiteSpace=wrap;html=1;rounded=0;shadow=1;comic=0;labelBackgroundColor=none;strokeWidth=1;fontFamily=Verdana;fontSize=12;align=center;" vertex="1" parent="rTMQDeSfpLFrqbZm5bAi-1">
          <mxGeometry x="88.16326530612244" y="42.972972972972975" width="55.10204081632652" height="42.972972972972975" as="geometry" />
        </mxCell>
        <mxCell id="rTMQDeSfpLFrqbZm5bAi-32" value="" style="ellipse;whiteSpace=wrap;html=1;rounded=0;shadow=1;comic=0;labelBackgroundColor=none;strokeWidth=3;fontFamily=Verdana;fontSize=12;align=center;dashed=1;dashPattern=1 1;strokeColor=#FF0000;" vertex="1" parent="rTMQDeSfpLFrqbZm5bAi-1">
          <mxGeometry y="41.25405405405406" width="55.10204081632652" height="42.972972972972975" as="geometry" />
        </mxCell>
        <mxCell id="rTMQDeSfpLFrqbZm5bAi-33" value="State 5" style="ellipse;whiteSpace=wrap;html=1;rounded=0;shadow=1;comic=0;labelBackgroundColor=none;strokeWidth=1;fontFamily=Verdana;fontSize=12;align=center;" vertex="1" parent="rTMQDeSfpLFrqbZm5bAi-1">
          <mxGeometry x="80.81632653061223" y="275.0270270270271" width="55.10204081632652" height="42.972972972972975" as="geometry" />
        </mxCell>
        <mxCell id="rTMQDeSfpLFrqbZm5bAi-34" value="State 6" style="ellipse;whiteSpace=wrap;html=1;rounded=0;shadow=1;comic=0;labelBackgroundColor=none;strokeWidth=1;fontFamily=Verdana;fontSize=12;align=center;" vertex="1" parent="rTMQDeSfpLFrqbZm5bAi-1">
          <mxGeometry x="33.06122448979591" y="176.1891891891892" width="55.10204081632652" height="42.972972972972975" as="geometry" />
        </mxCell>
        <mxCell id="rTMQDeSfpLFrqbZm5bAi-35" value="" style="edgeStyle=none;rounded=1;html=1;labelBackgroundColor=none;startArrow=none;startFill=0;startSize=5;endArrow=classicThin;endFill=1;endSize=5;jettySize=auto;orthogonalLoop=1;strokeColor=#B3B3B3;strokeWidth=1;fontFamily=Verdana;fontSize=12;entryX=1;entryY=0.5;entryDx=0;entryDy=0;exitX=0;exitY=0.5;exitDx=0;exitDy=0;" edge="1" parent="rTMQDeSfpLFrqbZm5bAi-1" source="rTMQDeSfpLFrqbZm5bAi-19" target="rTMQDeSfpLFrqbZm5bAi-31">
          <mxGeometry relative="1" as="geometry">
            <mxPoint x="251.26530612244895" y="89.3837837837838" as="sourcePoint" />
            <mxPoint x="301.2244897959183" y="133.21621621621622" as="targetPoint" />
          </mxGeometry>
        </mxCell>
        <mxCell id="rTMQDeSfpLFrqbZm5bAi-36" value="" style="edgeStyle=none;rounded=1;html=1;labelBackgroundColor=none;startArrow=none;startFill=0;startSize=5;endArrow=classicThin;endFill=1;endSize=5;jettySize=auto;orthogonalLoop=1;strokeColor=#B3B3B3;strokeWidth=1;fontFamily=Verdana;fontSize=12;exitX=0.422;exitY=0;exitDx=0;exitDy=0;exitPerimeter=0;entryX=0.5;entryY=1;entryDx=0;entryDy=0;" edge="1" parent="rTMQDeSfpLFrqbZm5bAi-1" source="rTMQDeSfpLFrqbZm5bAi-30" target="rTMQDeSfpLFrqbZm5bAi-31">
          <mxGeometry relative="1" as="geometry">
            <mxPoint x="95.51020408163264" y="73.05405405405406" as="sourcePoint" />
            <mxPoint x="51.42857142857142" y="28.362162162162164" as="targetPoint" />
          </mxGeometry>
        </mxCell>
        <mxCell id="rTMQDeSfpLFrqbZm5bAi-37" value="" style="edgeStyle=none;rounded=1;html=1;labelBackgroundColor=none;startArrow=none;startFill=0;startSize=5;endArrow=classicThin;endFill=1;endSize=5;jettySize=auto;orthogonalLoop=1;strokeColor=#B3B3B3;strokeWidth=1;fontFamily=Verdana;fontSize=12;exitX=0;exitY=1;exitDx=0;exitDy=0;entryX=0;entryY=0;entryDx=0;entryDy=0;" edge="1" parent="rTMQDeSfpLFrqbZm5bAi-1" source="rTMQDeSfpLFrqbZm5bAi-31" target="rTMQDeSfpLFrqbZm5bAi-30">
          <mxGeometry relative="1" as="geometry">
            <mxPoint x="102.85714285714285" y="81.64864864864866" as="sourcePoint" />
            <mxPoint x="102.85714285714285" y="161.5783783783784" as="targetPoint" />
          </mxGeometry>
        </mxCell>
        <mxCell id="rTMQDeSfpLFrqbZm5bAi-38" value="" style="edgeStyle=none;rounded=1;html=1;labelBackgroundColor=none;startArrow=none;startFill=0;startSize=5;endArrow=classicThin;endFill=1;endSize=5;jettySize=auto;orthogonalLoop=1;strokeColor=#B3B3B3;strokeWidth=1;fontFamily=Verdana;fontSize=12;exitX=0;exitY=0.5;exitDx=0;exitDy=0;" edge="1" parent="rTMQDeSfpLFrqbZm5bAi-1" source="rTMQDeSfpLFrqbZm5bAi-31" target="rTMQDeSfpLFrqbZm5bAi-32">
          <mxGeometry relative="1" as="geometry" />
        </mxCell>
        <mxCell id="rTMQDeSfpLFrqbZm5bAi-39" value="" style="edgeStyle=none;rounded=1;html=1;labelBackgroundColor=none;startArrow=none;startFill=0;startSize=5;endArrow=classicThin;endFill=1;endSize=5;jettySize=auto;orthogonalLoop=1;strokeColor=#B3B3B3;strokeWidth=1;fontFamily=Verdana;fontSize=12;exitX=0.973;exitY=0.74;exitDx=0;exitDy=0;exitPerimeter=0;entryX=0.027;entryY=0.78;entryDx=0;entryDy=0;entryPerimeter=0;" edge="1" parent="rTMQDeSfpLFrqbZm5bAi-1" source="rTMQDeSfpLFrqbZm5bAi-31" target="rTMQDeSfpLFrqbZm5bAi-19">
          <mxGeometry relative="1" as="geometry">
            <mxPoint x="110.20408163265304" y="90.24324324324324" as="sourcePoint" />
            <mxPoint x="183.67346938775506" y="101.41621621621623" as="targetPoint" />
          </mxGeometry>
        </mxCell>
        <mxCell id="rTMQDeSfpLFrqbZm5bAi-40" value="" style="edgeStyle=none;rounded=1;html=1;labelBackgroundColor=none;startArrow=none;startFill=0;startSize=5;endArrow=classicThin;endFill=1;endSize=5;jettySize=auto;orthogonalLoop=1;strokeColor=#B3B3B3;strokeWidth=1;fontFamily=Verdana;fontSize=12;exitX=0;exitY=0.5;exitDx=0;exitDy=0;entryX=1;entryY=0.5;entryDx=0;entryDy=0;" edge="1" parent="rTMQDeSfpLFrqbZm5bAi-1" source="rTMQDeSfpLFrqbZm5bAi-30" target="rTMQDeSfpLFrqbZm5bAi-34">
          <mxGeometry relative="1" as="geometry">
            <mxPoint x="117.55102040816325" y="98.83783783783785" as="sourcePoint" />
            <mxPoint x="73.46938775510203" y="54.145945945945954" as="targetPoint" />
          </mxGeometry>
        </mxCell>
        <mxCell id="rTMQDeSfpLFrqbZm5bAi-41" value="" style="edgeStyle=none;rounded=1;html=1;labelBackgroundColor=none;startArrow=none;startFill=0;startSize=5;endArrow=classicThin;endFill=1;endSize=5;jettySize=auto;orthogonalLoop=1;strokeColor=#B3B3B3;strokeWidth=1;fontFamily=Verdana;fontSize=12;exitX=0.422;exitY=1.017;exitDx=0;exitDy=0;exitPerimeter=0;" edge="1" parent="rTMQDeSfpLFrqbZm5bAi-1" source="rTMQDeSfpLFrqbZm5bAi-30" target="rTMQDeSfpLFrqbZm5bAi-33">
          <mxGeometry relative="1" as="geometry">
            <mxPoint x="124.89795918367346" y="107.43243243243245" as="sourcePoint" />
            <mxPoint x="80.81632653061223" y="62.74054054054055" as="targetPoint" />
          </mxGeometry>
        </mxCell>
        <mxCell id="rTMQDeSfpLFrqbZm5bAi-42" value="" style="edgeStyle=orthogonalEdgeStyle;rounded=1;html=1;labelBackgroundColor=none;startArrow=none;startFill=0;startSize=5;endArrow=classicThin;endFill=1;endSize=5;jettySize=auto;orthogonalLoop=1;strokeColor=#B3B3B3;strokeWidth=1;fontFamily=Verdana;fontSize=12;exitX=0.5;exitY=1;exitDx=0;exitDy=0;entryX=0.5;entryY=1;entryDx=0;entryDy=0;" edge="1" parent="rTMQDeSfpLFrqbZm5bAi-1" source="rTMQDeSfpLFrqbZm5bAi-33" target="rTMQDeSfpLFrqbZm5bAi-9">
          <mxGeometry relative="1" as="geometry">
            <mxPoint x="132.24489795918365" y="116.02702702702703" as="sourcePoint" />
            <mxPoint x="108.36734693877548" y="359.2540540540541" as="targetPoint" />
          </mxGeometry>
        </mxCell>
        <mxCell id="rTMQDeSfpLFrqbZm5bAi-43" value="" style="edgeStyle=orthogonalEdgeStyle;rounded=1;html=1;labelBackgroundColor=none;startArrow=none;startFill=0;startSize=5;endArrow=classicThin;endFill=1;endSize=5;jettySize=auto;orthogonalLoop=1;strokeColor=#B3B3B3;strokeWidth=1;fontFamily=Verdana;fontSize=12;exitX=0;exitY=0.5;exitDx=0;exitDy=0;entryX=0.5;entryY=1;entryDx=0;entryDy=0;" edge="1" parent="rTMQDeSfpLFrqbZm5bAi-1" source="rTMQDeSfpLFrqbZm5bAi-34" target="rTMQDeSfpLFrqbZm5bAi-32">
          <mxGeometry relative="1" as="geometry">
            <mxPoint x="116.0816326530612" y="326.59459459459464" as="sourcePoint" />
            <mxPoint x="409.95918367346934" y="326.59459459459464" as="targetPoint" />
            <Array as="points">
              <mxPoint x="27.918367346938773" y="197.6756756756757" />
              <mxPoint x="27.918367346938773" y="130.63783783783785" />
            </Array>
          </mxGeometry>
        </mxCell>
      </root>
    </mxGraphModel>
  </diagram>
  <diagram id="ekmFHJIHzI56vrUZEfoB" name="第 2 页">
    <mxGraphModel dx="1026" dy="660" grid="1" gridSize="10" guides="1" tooltips="1" connect="1" arrows="1" fold="1" page="1" pageScale="1" pageWidth="827" pageHeight="1169" math="0" shadow="0">
      <root>
        <mxCell id="0" />
        <mxCell id="1" parent="0" />
        <mxCell id="OgCgujtNH9TDL7g5Y6rJ-1" value="" style="group" vertex="1" connectable="0" parent="1">
          <mxGeometry x="210" y="42" width="540" height="318" as="geometry" />
        </mxCell>
        <mxCell id="NohN5JwslAsjM7FVGsKz-1" style="edgeStyle=none;rounded=1;html=1;labelBackgroundColor=none;startArrow=none;startFill=0;startSize=5;endArrow=classicThin;endFill=1;endSize=5;jettySize=auto;orthogonalLoop=1;strokeColor=#B3B3B3;strokeWidth=1;fontFamily=Verdana;fontSize=12" edge="1" parent="OgCgujtNH9TDL7g5Y6rJ-1" target="NohN5JwslAsjM7FVGsKz-6">
          <mxGeometry relative="1" as="geometry">
            <mxPoint x="183.67346938775506" y="197.6756756756757" as="sourcePoint" />
          </mxGeometry>
        </mxCell>
        <mxCell id="NohN5JwslAsjM7FVGsKz-2" value="Action 1:&lt;b&gt;&lt;i&gt;Connect&lt;/i&gt;&lt;/b&gt;" style="edgeStyle=none;rounded=1;html=1;labelBackgroundColor=none;startArrow=none;startFill=0;startSize=5;endArrow=classicThin;endFill=1;endSize=5;jettySize=auto;orthogonalLoop=1;strokeColor=#B3B3B3;strokeWidth=1;fontFamily=Verdana;fontSize=12" edge="1" parent="OgCgujtNH9TDL7g5Y6rJ-1" target="NohN5JwslAsjM7FVGsKz-19">
          <mxGeometry x="0.0038" relative="1" as="geometry">
            <mxPoint as="offset" />
            <mxPoint x="163.83673469387753" y="174.4702702702703" as="sourcePoint" />
          </mxGeometry>
        </mxCell>
        <mxCell id="NohN5JwslAsjM7FVGsKz-3" value="Action 2:&lt;b&gt;&lt;i&gt;Publish&lt;/i&gt;&lt;/b&gt;" style="edgeStyle=none;rounded=1;html=1;labelBackgroundColor=none;startArrow=none;startFill=0;startSize=5;endArrow=classicThin;endFill=1;endSize=5;jettySize=auto;orthogonalLoop=1;strokeColor=#B3B3B3;strokeWidth=1;fontFamily=Verdana;fontSize=12" edge="1" parent="OgCgujtNH9TDL7g5Y6rJ-1" target="NohN5JwslAsjM7FVGsKz-8">
          <mxGeometry relative="1" as="geometry">
            <mxPoint x="168.97959183673467" y="219.16216216216216" as="sourcePoint" />
          </mxGeometry>
        </mxCell>
        <mxCell id="NohN5JwslAsjM7FVGsKz-6" value="&lt;span&gt;State 3&lt;/span&gt;" style="ellipse;whiteSpace=wrap;html=1;rounded=0;shadow=1;comic=0;labelBackgroundColor=none;strokeWidth=1;fontFamily=Verdana;fontSize=12;align=center;" vertex="1" parent="OgCgujtNH9TDL7g5Y6rJ-1">
          <mxGeometry x="205.7142857142857" y="176.1891891891892" width="55.10204081632652" height="42.972972972972975" as="geometry" />
        </mxCell>
        <mxCell id="NohN5JwslAsjM7FVGsKz-8" value="&lt;span&gt;State 4&lt;/span&gt;" style="ellipse;whiteSpace=wrap;html=1;rounded=0;shadow=1;comic=0;labelBackgroundColor=none;strokeWidth=1;fontFamily=Verdana;fontSize=12;align=center;" vertex="1" parent="OgCgujtNH9TDL7g5Y6rJ-1">
          <mxGeometry x="205.7142857142857" y="275.0270270270271" width="55.10204081632652" height="42.972972972972975" as="geometry" />
        </mxCell>
        <mxCell id="NohN5JwslAsjM7FVGsKz-10" value="" style="ellipse;whiteSpace=wrap;html=1;rounded=0;shadow=1;comic=0;labelBackgroundColor=none;strokeWidth=1;fontFamily=Verdana;fontSize=12;align=center;" vertex="1" parent="OgCgujtNH9TDL7g5Y6rJ-1">
          <mxGeometry x="293.87755102040813" y="275.0270270270271" width="55.10204081632652" height="42.972972972972975" as="geometry" />
        </mxCell>
        <mxCell id="NohN5JwslAsjM7FVGsKz-7" value="" style="edgeStyle=none;rounded=1;html=1;labelBackgroundColor=none;startArrow=none;startFill=0;startSize=5;endArrow=classicThin;endFill=1;endSize=5;jettySize=auto;orthogonalLoop=1;strokeColor=#B3B3B3;strokeWidth=1;fontFamily=Verdana;fontSize=12" edge="1" parent="OgCgujtNH9TDL7g5Y6rJ-1" source="NohN5JwslAsjM7FVGsKz-8" target="NohN5JwslAsjM7FVGsKz-10">
          <mxGeometry relative="1" as="geometry" />
        </mxCell>
        <mxCell id="NohN5JwslAsjM7FVGsKz-12" value="" style="ellipse;whiteSpace=wrap;html=1;rounded=0;shadow=1;comic=0;labelBackgroundColor=none;strokeWidth=1;fontFamily=Verdana;fontSize=12;align=center;" vertex="1" parent="OgCgujtNH9TDL7g5Y6rJ-1">
          <mxGeometry x="374.69387755102036" y="275.0270270270271" width="55.10204081632652" height="42.972972972972975" as="geometry" />
        </mxCell>
        <mxCell id="NohN5JwslAsjM7FVGsKz-9" value="" style="edgeStyle=none;rounded=1;html=1;labelBackgroundColor=none;startArrow=none;startFill=0;startSize=5;endArrow=classicThin;endFill=1;endSize=5;jettySize=auto;orthogonalLoop=1;strokeColor=#B3B3B3;strokeWidth=1;fontFamily=Verdana;fontSize=12" edge="1" parent="OgCgujtNH9TDL7g5Y6rJ-1" source="NohN5JwslAsjM7FVGsKz-10" target="NohN5JwslAsjM7FVGsKz-12">
          <mxGeometry relative="1" as="geometry" />
        </mxCell>
        <mxCell id="NohN5JwslAsjM7FVGsKz-14" value="" style="ellipse;whiteSpace=wrap;html=1;rounded=0;shadow=1;comic=0;labelBackgroundColor=none;strokeWidth=1;fontFamily=Verdana;fontSize=12;align=center;" vertex="1" parent="OgCgujtNH9TDL7g5Y6rJ-1">
          <mxGeometry x="293.87755102040813" y="206.2702702702703" width="55.10204081632652" height="42.972972972972975" as="geometry" />
        </mxCell>
        <mxCell id="NohN5JwslAsjM7FVGsKz-5" value="" style="edgeStyle=none;rounded=1;html=1;labelBackgroundColor=none;startArrow=none;startFill=0;startSize=5;endArrow=classicThin;endFill=1;endSize=5;jettySize=auto;orthogonalLoop=1;strokeColor=#B3B3B3;strokeWidth=1;fontFamily=Verdana;fontSize=12" edge="1" parent="OgCgujtNH9TDL7g5Y6rJ-1" source="NohN5JwslAsjM7FVGsKz-6" target="NohN5JwslAsjM7FVGsKz-14">
          <mxGeometry relative="1" as="geometry" />
        </mxCell>
        <mxCell id="NohN5JwslAsjM7FVGsKz-16" value="" style="ellipse;whiteSpace=wrap;html=1;rounded=0;shadow=1;comic=0;labelBackgroundColor=none;strokeWidth=3;fontFamily=Verdana;fontSize=12;align=center;dashed=1;dashPattern=1 1;strokeColor=#FF0000;" vertex="1" parent="OgCgujtNH9TDL7g5Y6rJ-1">
          <mxGeometry x="293.87755102040813" y="103.13513513513514" width="55.10204081632652" height="42.972972972972975" as="geometry" />
        </mxCell>
        <mxCell id="NohN5JwslAsjM7FVGsKz-4" value="" style="edgeStyle=none;rounded=1;html=1;labelBackgroundColor=none;startArrow=none;startFill=0;startSize=5;endArrow=classicThin;endFill=1;endSize=5;jettySize=auto;orthogonalLoop=1;strokeColor=#B3B3B3;strokeWidth=1;fontFamily=Verdana;fontSize=12" edge="1" parent="OgCgujtNH9TDL7g5Y6rJ-1" source="NohN5JwslAsjM7FVGsKz-6" target="NohN5JwslAsjM7FVGsKz-16">
          <mxGeometry relative="1" as="geometry" />
        </mxCell>
        <mxCell id="NohN5JwslAsjM7FVGsKz-17" value="" style="ellipse;whiteSpace=wrap;html=1;rounded=0;shadow=1;comic=0;labelBackgroundColor=none;strokeWidth=1;fontFamily=Verdana;fontSize=12;align=center;" vertex="1" parent="OgCgujtNH9TDL7g5Y6rJ-1">
          <mxGeometry x="374.69387755102036" y="150.40540540540542" width="55.10204081632652" height="42.972972972972975" as="geometry" />
        </mxCell>
        <mxCell id="NohN5JwslAsjM7FVGsKz-13" value="" style="edgeStyle=none;rounded=1;html=1;labelBackgroundColor=none;startArrow=none;startFill=0;startSize=5;endArrow=classicThin;endFill=1;endSize=5;jettySize=auto;orthogonalLoop=1;strokeColor=#B3B3B3;strokeWidth=1;fontFamily=Verdana;fontSize=12" edge="1" parent="OgCgujtNH9TDL7g5Y6rJ-1" source="NohN5JwslAsjM7FVGsKz-14" target="NohN5JwslAsjM7FVGsKz-17">
          <mxGeometry relative="1" as="geometry" />
        </mxCell>
        <mxCell id="NohN5JwslAsjM7FVGsKz-15" value="" style="edgeStyle=none;rounded=1;html=1;labelBackgroundColor=none;startArrow=none;startFill=0;startSize=5;endArrow=classicThin;endFill=1;endSize=5;jettySize=auto;orthogonalLoop=1;strokeColor=#B3B3B3;strokeWidth=1;fontFamily=Verdana;fontSize=12" edge="1" parent="OgCgujtNH9TDL7g5Y6rJ-1" source="NohN5JwslAsjM7FVGsKz-16" target="NohN5JwslAsjM7FVGsKz-17">
          <mxGeometry relative="1" as="geometry" />
        </mxCell>
        <mxCell id="NohN5JwslAsjM7FVGsKz-18" value="" style="edgeStyle=none;rounded=1;html=1;labelBackgroundColor=none;startArrow=none;startFill=0;startSize=5;endArrow=classicThin;endFill=1;endSize=5;jettySize=auto;orthogonalLoop=1;strokeColor=#B3B3B3;strokeWidth=1;fontFamily=Verdana;fontSize=12;entryX=0;entryY=0.5;entryDx=0;entryDy=0;" edge="1" parent="OgCgujtNH9TDL7g5Y6rJ-1" source="NohN5JwslAsjM7FVGsKz-19" target="NohN5JwslAsjM7FVGsKz-16">
          <mxGeometry relative="1" as="geometry" />
        </mxCell>
        <mxCell id="NohN5JwslAsjM7FVGsKz-19" value="State 2" style="ellipse;whiteSpace=wrap;html=1;rounded=0;shadow=1;comic=0;labelBackgroundColor=none;strokeWidth=1;fontFamily=Verdana;fontSize=12;align=center;" vertex="1" parent="OgCgujtNH9TDL7g5Y6rJ-1">
          <mxGeometry x="198.36734693877548" y="42.972972972972975" width="55.10204081632652" height="42.972972972972975" as="geometry" />
        </mxCell>
        <mxCell id="NohN5JwslAsjM7FVGsKz-21" value="" style="ellipse;whiteSpace=wrap;html=1;rounded=0;shadow=1;comic=0;labelBackgroundColor=none;strokeWidth=1;fontFamily=Verdana;fontSize=12;align=center;" vertex="1" parent="OgCgujtNH9TDL7g5Y6rJ-1">
          <mxGeometry x="286.5306122448979" width="55.10204081632652" height="42.972972972972975" as="geometry" />
        </mxCell>
        <mxCell id="NohN5JwslAsjM7FVGsKz-22" value="" style="ellipse;whiteSpace=wrap;html=1;rounded=0;shadow=1;comic=0;labelBackgroundColor=none;strokeWidth=3;fontFamily=Verdana;fontSize=12;align=center;dashed=1;dashPattern=1 1;strokeColor=#FF0000;" vertex="1" parent="OgCgujtNH9TDL7g5Y6rJ-1">
          <mxGeometry x="374.69387755102036" width="55.10204081632652" height="42.972972972972975" as="geometry" />
        </mxCell>
        <mxCell id="NohN5JwslAsjM7FVGsKz-20" value="" style="edgeStyle=none;rounded=1;html=1;labelBackgroundColor=none;startArrow=none;startFill=0;startSize=5;endArrow=classicThin;endFill=1;endSize=5;jettySize=auto;orthogonalLoop=1;strokeColor=#B3B3B3;strokeWidth=1;fontFamily=Verdana;fontSize=12" edge="1" parent="OgCgujtNH9TDL7g5Y6rJ-1" source="NohN5JwslAsjM7FVGsKz-21" target="NohN5JwslAsjM7FVGsKz-22">
          <mxGeometry relative="1" as="geometry" />
        </mxCell>
        <mxCell id="NohN5JwslAsjM7FVGsKz-23" value="" style="edgeStyle=none;rounded=1;html=1;labelBackgroundColor=none;startArrow=none;startFill=0;startSize=5;endArrow=classicThin;endFill=1;endSize=5;jettySize=auto;orthogonalLoop=1;strokeColor=#B3B3B3;strokeWidth=1;fontFamily=Verdana;fontSize=12;entryX=0;entryY=0.5;entryDx=0;entryDy=0;exitX=1;exitY=0;exitDx=0;exitDy=0;" edge="1" parent="OgCgujtNH9TDL7g5Y6rJ-1" source="NohN5JwslAsjM7FVGsKz-19" target="NohN5JwslAsjM7FVGsKz-21">
          <mxGeometry relative="1" as="geometry">
            <mxPoint x="277.71428571428567" y="119.46486486486488" as="sourcePoint" />
            <mxPoint x="352.65306122448976" y="159" as="targetPoint" />
          </mxGeometry>
        </mxCell>
        <mxCell id="NohN5JwslAsjM7FVGsKz-24" value="" style="ellipse;whiteSpace=wrap;html=1;rounded=0;shadow=1;comic=0;labelBackgroundColor=none;strokeWidth=1;fontFamily=Verdana;fontSize=12;align=center;dashed=1;dashPattern=1 2;" vertex="1" parent="OgCgujtNH9TDL7g5Y6rJ-1">
          <mxGeometry x="484.8979591836734" width="55.10204081632652" height="42.972972972972975" as="geometry" />
        </mxCell>
        <mxCell id="NohN5JwslAsjM7FVGsKz-25" value="" style="edgeStyle=none;rounded=1;html=1;labelBackgroundColor=none;startArrow=none;startFill=0;startSize=5;endArrow=classicThin;endFill=1;endSize=5;jettySize=auto;orthogonalLoop=1;strokeColor=#B3B3B3;strokeWidth=1;fontFamily=Verdana;fontSize=12;exitX=1;exitY=0.5;exitDx=0;exitDy=0;entryX=0;entryY=0.5;entryDx=0;entryDy=0;dashed=1;dashPattern=1 2;" edge="1" parent="OgCgujtNH9TDL7g5Y6rJ-1" source="NohN5JwslAsjM7FVGsKz-22" target="NohN5JwslAsjM7FVGsKz-24">
          <mxGeometry relative="1" as="geometry">
            <mxPoint x="407.75510204081627" y="47.270270270270274" as="sourcePoint" />
            <mxPoint x="462.8571428571428" y="47.270270270270274" as="targetPoint" />
          </mxGeometry>
        </mxCell>
        <mxCell id="NohN5JwslAsjM7FVGsKz-26" value="" style="ellipse;whiteSpace=wrap;html=1;rounded=0;shadow=1;comic=0;labelBackgroundColor=none;strokeWidth=1;fontFamily=Verdana;fontSize=12;align=center;dashed=1;dashPattern=1 2;" vertex="1" parent="OgCgujtNH9TDL7g5Y6rJ-1">
          <mxGeometry x="484.8979591836734" y="107.43243243243245" width="55.10204081632652" height="42.972972972972975" as="geometry" />
        </mxCell>
        <mxCell id="NohN5JwslAsjM7FVGsKz-27" value="" style="edgeStyle=none;rounded=1;html=1;labelBackgroundColor=none;startArrow=none;startFill=0;startSize=5;endArrow=classicThin;endFill=1;endSize=5;jettySize=auto;orthogonalLoop=1;strokeColor=#B3B3B3;strokeWidth=1;fontFamily=Verdana;fontSize=12;exitX=1;exitY=0.5;exitDx=0;exitDy=0;entryX=0;entryY=0.5;entryDx=0;entryDy=0;dashed=1;dashPattern=1 2;" edge="1" parent="OgCgujtNH9TDL7g5Y6rJ-1" source="NohN5JwslAsjM7FVGsKz-17" target="NohN5JwslAsjM7FVGsKz-26">
          <mxGeometry relative="1" as="geometry">
            <mxPoint x="429.79591836734687" y="128.91891891891893" as="sourcePoint" />
            <mxPoint x="462.8571428571428" y="154.7027027027027" as="targetPoint" />
          </mxGeometry>
        </mxCell>
        <mxCell id="NohN5JwslAsjM7FVGsKz-28" value="" style="ellipse;whiteSpace=wrap;html=1;rounded=0;shadow=1;comic=0;labelBackgroundColor=none;strokeWidth=1;fontFamily=Verdana;fontSize=12;align=center;dashed=1;dashPattern=1 2;" vertex="1" parent="OgCgujtNH9TDL7g5Y6rJ-1">
          <mxGeometry x="484.8979591836734" y="210.56756756756758" width="55.10204081632652" height="42.972972972972975" as="geometry" />
        </mxCell>
        <mxCell id="NohN5JwslAsjM7FVGsKz-29" value="" style="edgeStyle=none;rounded=1;html=1;labelBackgroundColor=none;startArrow=none;startFill=0;startSize=5;endArrow=classicThin;endFill=1;endSize=5;jettySize=auto;orthogonalLoop=1;strokeColor=#B3B3B3;strokeWidth=1;fontFamily=Verdana;fontSize=12;exitX=1;exitY=0.5;exitDx=0;exitDy=0;entryX=0;entryY=0.5;entryDx=0;entryDy=0;dashed=1;dashPattern=1 2;" edge="1" parent="OgCgujtNH9TDL7g5Y6rJ-1" source="NohN5JwslAsjM7FVGsKz-17" target="NohN5JwslAsjM7FVGsKz-28">
          <mxGeometry relative="1" as="geometry">
            <mxPoint x="429.79591836734687" y="275.0270270270271" as="sourcePoint" />
            <mxPoint x="462.8571428571428" y="257.83783783783787" as="targetPoint" />
          </mxGeometry>
        </mxCell>
        <mxCell id="e3pWezbBGkbqlmeetgyj-1" value="&lt;b&gt;Starting&lt;br&gt;State&lt;/b&gt;" style="ellipse;whiteSpace=wrap;html=1;rounded=0;shadow=1;comic=0;labelBackgroundColor=none;strokeWidth=1;fontFamily=Verdana;fontSize=12;align=center;" vertex="1" parent="OgCgujtNH9TDL7g5Y6rJ-1">
          <mxGeometry x="117.55102040816325" y="171.8918918918919" width="66.12244897959182" height="51.56756756756757" as="geometry" />
        </mxCell>
        <mxCell id="e3pWezbBGkbqlmeetgyj-4" value="State 1" style="ellipse;whiteSpace=wrap;html=1;rounded=0;shadow=1;comic=0;labelBackgroundColor=none;strokeWidth=1;fontFamily=Verdana;fontSize=12;align=center;" vertex="1" parent="OgCgujtNH9TDL7g5Y6rJ-1">
          <mxGeometry x="88.16326530612244" y="42.972972972972975" width="55.10204081632652" height="42.972972972972975" as="geometry" />
        </mxCell>
        <mxCell id="e3pWezbBGkbqlmeetgyj-14" value="" style="ellipse;whiteSpace=wrap;html=1;rounded=0;shadow=1;comic=0;labelBackgroundColor=none;strokeWidth=3;fontFamily=Verdana;fontSize=12;align=center;dashed=1;dashPattern=1 1;strokeColor=#FF0000;" vertex="1" parent="OgCgujtNH9TDL7g5Y6rJ-1">
          <mxGeometry y="41.25405405405406" width="55.10204081632652" height="42.972972972972975" as="geometry" />
        </mxCell>
        <mxCell id="e3pWezbBGkbqlmeetgyj-17" value="State 5" style="ellipse;whiteSpace=wrap;html=1;rounded=0;shadow=1;comic=0;labelBackgroundColor=none;strokeWidth=1;fontFamily=Verdana;fontSize=12;align=center;" vertex="1" parent="OgCgujtNH9TDL7g5Y6rJ-1">
          <mxGeometry x="80.81632653061223" y="275.0270270270271" width="55.10204081632652" height="42.972972972972975" as="geometry" />
        </mxCell>
        <mxCell id="e3pWezbBGkbqlmeetgyj-19" value="State 6" style="ellipse;whiteSpace=wrap;html=1;rounded=0;shadow=1;comic=0;labelBackgroundColor=none;strokeWidth=1;fontFamily=Verdana;fontSize=12;align=center;" vertex="1" parent="OgCgujtNH9TDL7g5Y6rJ-1">
          <mxGeometry x="33.06122448979591" y="176.1891891891892" width="55.10204081632652" height="42.972972972972975" as="geometry" />
        </mxCell>
        <mxCell id="e3pWezbBGkbqlmeetgyj-28" value="" style="edgeStyle=none;rounded=1;html=1;labelBackgroundColor=none;startArrow=none;startFill=0;startSize=5;endArrow=classicThin;endFill=1;endSize=5;jettySize=auto;orthogonalLoop=1;strokeColor=#B3B3B3;strokeWidth=1;fontFamily=Verdana;fontSize=12;entryX=1;entryY=0.5;entryDx=0;entryDy=0;exitX=0;exitY=0.5;exitDx=0;exitDy=0;" edge="1" parent="OgCgujtNH9TDL7g5Y6rJ-1" source="NohN5JwslAsjM7FVGsKz-19" target="e3pWezbBGkbqlmeetgyj-4">
          <mxGeometry relative="1" as="geometry">
            <mxPoint x="251.26530612244895" y="89.3837837837838" as="sourcePoint" />
            <mxPoint x="301.2244897959183" y="133.21621621621622" as="targetPoint" />
          </mxGeometry>
        </mxCell>
        <mxCell id="e3pWezbBGkbqlmeetgyj-30" value="" style="edgeStyle=none;rounded=1;html=1;labelBackgroundColor=none;startArrow=none;startFill=0;startSize=5;endArrow=classicThin;endFill=1;endSize=5;jettySize=auto;orthogonalLoop=1;strokeColor=#B3B3B3;strokeWidth=1;fontFamily=Verdana;fontSize=12;exitX=0.422;exitY=0;exitDx=0;exitDy=0;exitPerimeter=0;entryX=0.5;entryY=1;entryDx=0;entryDy=0;" edge="1" parent="OgCgujtNH9TDL7g5Y6rJ-1" source="e3pWezbBGkbqlmeetgyj-1" target="e3pWezbBGkbqlmeetgyj-4">
          <mxGeometry relative="1" as="geometry">
            <mxPoint x="95.51020408163264" y="73.05405405405406" as="sourcePoint" />
            <mxPoint x="51.42857142857142" y="28.362162162162164" as="targetPoint" />
          </mxGeometry>
        </mxCell>
        <mxCell id="e3pWezbBGkbqlmeetgyj-31" value="" style="edgeStyle=none;rounded=1;html=1;labelBackgroundColor=none;startArrow=none;startFill=0;startSize=5;endArrow=classicThin;endFill=1;endSize=5;jettySize=auto;orthogonalLoop=1;strokeColor=#B3B3B3;strokeWidth=1;fontFamily=Verdana;fontSize=12;exitX=0;exitY=1;exitDx=0;exitDy=0;entryX=0;entryY=0;entryDx=0;entryDy=0;" edge="1" parent="OgCgujtNH9TDL7g5Y6rJ-1" source="e3pWezbBGkbqlmeetgyj-4" target="e3pWezbBGkbqlmeetgyj-1">
          <mxGeometry relative="1" as="geometry">
            <mxPoint x="102.85714285714285" y="81.64864864864866" as="sourcePoint" />
            <mxPoint x="102.85714285714285" y="161.5783783783784" as="targetPoint" />
          </mxGeometry>
        </mxCell>
        <mxCell id="e3pWezbBGkbqlmeetgyj-2" value="" style="edgeStyle=none;rounded=1;html=1;labelBackgroundColor=none;startArrow=none;startFill=0;startSize=5;endArrow=classicThin;endFill=1;endSize=5;jettySize=auto;orthogonalLoop=1;strokeColor=#B3B3B3;strokeWidth=1;fontFamily=Verdana;fontSize=12;exitX=0;exitY=0.5;exitDx=0;exitDy=0;" edge="1" parent="OgCgujtNH9TDL7g5Y6rJ-1" source="e3pWezbBGkbqlmeetgyj-4" target="e3pWezbBGkbqlmeetgyj-14">
          <mxGeometry relative="1" as="geometry" />
        </mxCell>
        <mxCell id="e3pWezbBGkbqlmeetgyj-32" value="" style="edgeStyle=none;rounded=1;html=1;labelBackgroundColor=none;startArrow=none;startFill=0;startSize=5;endArrow=classicThin;endFill=1;endSize=5;jettySize=auto;orthogonalLoop=1;strokeColor=#B3B3B3;strokeWidth=1;fontFamily=Verdana;fontSize=12;exitX=0.973;exitY=0.74;exitDx=0;exitDy=0;exitPerimeter=0;entryX=0.027;entryY=0.78;entryDx=0;entryDy=0;entryPerimeter=0;" edge="1" parent="OgCgujtNH9TDL7g5Y6rJ-1" source="e3pWezbBGkbqlmeetgyj-4" target="NohN5JwslAsjM7FVGsKz-19">
          <mxGeometry relative="1" as="geometry">
            <mxPoint x="110.20408163265304" y="90.24324324324324" as="sourcePoint" />
            <mxPoint x="183.67346938775506" y="101.41621621621623" as="targetPoint" />
          </mxGeometry>
        </mxCell>
        <mxCell id="e3pWezbBGkbqlmeetgyj-33" value="" style="edgeStyle=none;rounded=1;html=1;labelBackgroundColor=none;startArrow=none;startFill=0;startSize=5;endArrow=classicThin;endFill=1;endSize=5;jettySize=auto;orthogonalLoop=1;strokeColor=#B3B3B3;strokeWidth=1;fontFamily=Verdana;fontSize=12;exitX=0;exitY=0.5;exitDx=0;exitDy=0;entryX=1;entryY=0.5;entryDx=0;entryDy=0;" edge="1" parent="OgCgujtNH9TDL7g5Y6rJ-1" source="e3pWezbBGkbqlmeetgyj-1" target="e3pWezbBGkbqlmeetgyj-19">
          <mxGeometry relative="1" as="geometry">
            <mxPoint x="117.55102040816325" y="98.83783783783785" as="sourcePoint" />
            <mxPoint x="73.46938775510203" y="54.145945945945954" as="targetPoint" />
          </mxGeometry>
        </mxCell>
        <mxCell id="e3pWezbBGkbqlmeetgyj-34" value="" style="edgeStyle=none;rounded=1;html=1;labelBackgroundColor=none;startArrow=none;startFill=0;startSize=5;endArrow=classicThin;endFill=1;endSize=5;jettySize=auto;orthogonalLoop=1;strokeColor=#B3B3B3;strokeWidth=1;fontFamily=Verdana;fontSize=12;exitX=0.422;exitY=1.017;exitDx=0;exitDy=0;exitPerimeter=0;" edge="1" parent="OgCgujtNH9TDL7g5Y6rJ-1" source="e3pWezbBGkbqlmeetgyj-1" target="e3pWezbBGkbqlmeetgyj-17">
          <mxGeometry relative="1" as="geometry">
            <mxPoint x="124.89795918367346" y="107.43243243243245" as="sourcePoint" />
            <mxPoint x="80.81632653061223" y="62.74054054054055" as="targetPoint" />
          </mxGeometry>
        </mxCell>
        <mxCell id="e3pWezbBGkbqlmeetgyj-35" value="" style="edgeStyle=orthogonalEdgeStyle;rounded=1;html=1;labelBackgroundColor=none;startArrow=none;startFill=0;startSize=5;endArrow=classicThin;endFill=1;endSize=5;jettySize=auto;orthogonalLoop=1;strokeColor=#B3B3B3;strokeWidth=1;fontFamily=Verdana;fontSize=12;exitX=0.5;exitY=1;exitDx=0;exitDy=0;entryX=0.5;entryY=1;entryDx=0;entryDy=0;" edge="1" parent="OgCgujtNH9TDL7g5Y6rJ-1" source="e3pWezbBGkbqlmeetgyj-17" target="NohN5JwslAsjM7FVGsKz-12">
          <mxGeometry relative="1" as="geometry">
            <mxPoint x="132.24489795918365" y="116.02702702702703" as="sourcePoint" />
            <mxPoint x="108.36734693877548" y="359.2540540540541" as="targetPoint" />
          </mxGeometry>
        </mxCell>
        <mxCell id="e3pWezbBGkbqlmeetgyj-38" value="" style="edgeStyle=orthogonalEdgeStyle;rounded=1;html=1;labelBackgroundColor=none;startArrow=none;startFill=0;startSize=5;endArrow=classicThin;endFill=1;endSize=5;jettySize=auto;orthogonalLoop=1;strokeColor=#B3B3B3;strokeWidth=1;fontFamily=Verdana;fontSize=12;exitX=0;exitY=0.5;exitDx=0;exitDy=0;entryX=0.5;entryY=1;entryDx=0;entryDy=0;" edge="1" parent="OgCgujtNH9TDL7g5Y6rJ-1" source="e3pWezbBGkbqlmeetgyj-19" target="e3pWezbBGkbqlmeetgyj-14">
          <mxGeometry relative="1" as="geometry">
            <mxPoint x="116.0816326530612" y="326.59459459459464" as="sourcePoint" />
            <mxPoint x="409.95918367346934" y="326.59459459459464" as="targetPoint" />
            <Array as="points">
              <mxPoint x="27.918367346938773" y="197.6756756756757" />
              <mxPoint x="27.918367346938773" y="130.63783783783785" />
            </Array>
          </mxGeometry>
        </mxCell>
      </root>
    </mxGraphModel>
  </diagram>
  <diagram id="krINQl0PJKYT3KYpl69d" name="第 3 页">
    <mxGraphModel dx="1283" dy="825" grid="1" gridSize="10" guides="1" tooltips="1" connect="1" arrows="1" fold="1" page="1" pageScale="1" pageWidth="827" pageHeight="1169" math="0" shadow="0">
      <root>
        <mxCell id="0" />
        <mxCell id="1" parent="0" />
        <mxCell id="z7pE8QnRUrmuF2dCIuFo-2" value="" style="group" vertex="1" connectable="0" parent="1">
          <mxGeometry x="400" y="510" width="730" height="800" as="geometry" />
        </mxCell>
        <mxCell id="z7pE8QnRUrmuF2dCIuFo-4" value="&lt;div style=&quot;line-height: 18px;&quot;&gt;&lt;div style=&quot;&quot;&gt;&lt;pre style=&quot;box-sizing: border-box; margin-top: 0px; margin-bottom: 0px; overflow-wrap: normal; padding: 16px; overflow: auto; line-height: 1.45; background-color: var(--bgColor-muted, var(--color-canvas-subtle)); border-radius: 6px; word-break: normal; font-size: 13px;&quot;&gt;&lt;font style=&quot;font-size: 13px;&quot; face=&quot;ui-monospace, SFMono-Regular, SF Mono, Menlo, Consolas, Liberation Mono, monospace&quot; color=&quot;#1f2328&quot;&gt;1&lt;span style=&quot;white-space: pre;&quot;&gt;&amp;nbsp;&amp;nbsp;&amp;nbsp;&amp;nbsp;&lt;/span&gt;inline DISCONNECT(index){&lt;br&gt;2&lt;span style=&quot;white-space: pre;&quot;&gt;&amp;nbsp;&amp;nbsp;&amp;nbsp;&amp;nbsp;&lt;/span&gt;  atomic{&lt;br&gt;3&lt;span style=&quot;white-space: pre;&quot;&gt;&amp;nbsp;&amp;nbsp;&amp;nbsp;&amp;nbsp;&lt;/span&gt;    if&lt;br&gt;4&lt;span style=&quot;white-space: pre;&quot;&gt;&amp;nbsp;&amp;nbsp;&amp;nbsp;&amp;nbsp;&lt;/span&gt;      :: Sessions[Clients[index].clientId].willmessage.topic != -1 -&amp;gt;&lt;br&gt;5&lt;span style=&quot;white-space: pre;&quot;&gt;&amp;nbsp;&amp;nbsp;&amp;nbsp;&amp;nbsp;&lt;/span&gt;        msg = Sessions[Clients[index].clientId].willmessage;&lt;br&gt;6&lt;span style=&quot;white-space: pre;&quot;&gt;&amp;nbsp;&amp;nbsp;&amp;nbsp;&amp;nbsp;&lt;/span&gt;        short i_1 = 0;&lt;br&gt;7&lt;span style=&quot;white-space: pre;&quot;&gt;&amp;nbsp;&amp;nbsp;&amp;nbsp;&amp;nbsp;&lt;/span&gt;        do&lt;br&gt;8&lt;span style=&quot;white-space: pre;&quot;&gt;&amp;nbsp;&amp;nbsp;&amp;nbsp;&amp;nbsp;&lt;/span&gt;          :: i_1 &amp;lt; MAXSESSIONS -&amp;gt;&lt;br&gt;9&lt;span style=&quot;white-space: pre;&quot;&gt;&amp;nbsp;&amp;nbsp;&amp;nbsp;&amp;nbsp;&lt;/span&gt;            bool hasSubscription = false;&lt;br&gt;10&lt;span style=&quot;white-space: pre;&quot;&gt;&amp;nbsp;&amp;nbsp;&amp;nbsp;&amp;nbsp;&lt;/span&gt;            j = 0;&lt;br&gt;11&lt;span style=&quot;white-space: pre;&quot;&gt;&amp;nbsp;&amp;nbsp;&amp;nbsp;&amp;nbsp;&lt;/span&gt;&lt;br&gt;12&lt;span style=&quot;white-space: pre;&quot;&gt;&amp;nbsp;&amp;nbsp;&amp;nbsp;&amp;nbsp;&lt;/span&gt;            ...&lt;br&gt;13&lt;span style=&quot;white-space: pre;&quot;&gt;&amp;nbsp;&amp;nbsp;&amp;nbsp;&amp;nbsp;&lt;/span&gt;&lt;br&gt;14&lt;span style=&quot;white-space: pre;&quot;&gt;&amp;nbsp;&amp;nbsp;&amp;nbsp;&amp;nbsp;&lt;/span&gt;            do&lt;br&gt;15&lt;span style=&quot;white-space: pre;&quot;&gt;&amp;nbsp;&amp;nbsp;&amp;nbsp;&amp;nbsp;&lt;/span&gt;              :: j &amp;lt; MAXSUBSCRIPTIONS -&amp;gt;&lt;br&gt;16&lt;span style=&quot;white-space: pre;&quot;&gt;&amp;nbsp;&amp;nbsp;&amp;nbsp;&amp;nbsp;&lt;/span&gt;                if&lt;br&gt;17&lt;span style=&quot;white-space: pre;&quot;&gt;&amp;nbsp;&amp;nbsp;&amp;nbsp;&amp;nbsp;&lt;/span&gt;                  :: (Sessions[i_1].subscriptions[j].topic == msg.topic) -&amp;gt;&lt;br&gt;18&lt;span style=&quot;white-space: pre;&quot;&gt;&amp;nbsp;&amp;nbsp;&amp;nbsp;&amp;nbsp;&lt;/span&gt;                    hasSubscription = true;&lt;br&gt;19&lt;span style=&quot;white-space: pre;&quot;&gt;&amp;nbsp;&amp;nbsp;&amp;nbsp;&amp;nbsp;&lt;/span&gt;                    break;&lt;br&gt;20&lt;span style=&quot;white-space: pre;&quot;&gt;&amp;nbsp;&amp;nbsp;&amp;nbsp;&amp;nbsp;&lt;/span&gt;                  :: else -&amp;gt; skip;&lt;br&gt;21&lt;span style=&quot;white-space: pre;&quot;&gt;&amp;nbsp;&amp;nbsp;&amp;nbsp;&amp;nbsp;&lt;/span&gt;                fi;&lt;br&gt;22&lt;span style=&quot;white-space: pre;&quot;&gt;&amp;nbsp;&amp;nbsp;&amp;nbsp;&amp;nbsp;&lt;/span&gt;                j = j + 1;&lt;br&gt;23&lt;span style=&quot;white-space: pre;&quot;&gt;&amp;nbsp;&amp;nbsp;&amp;nbsp;&amp;nbsp;&lt;/span&gt;              :: else -&amp;gt;&lt;br&gt;24&lt;span style=&quot;white-space: pre;&quot;&gt;&amp;nbsp;&amp;nbsp;&amp;nbsp;&amp;nbsp;&lt;/span&gt;                goto nextClients;&lt;br&gt;25&lt;span style=&quot;white-space: pre;&quot;&gt;&amp;nbsp;&amp;nbsp;&amp;nbsp;&amp;nbsp;&lt;/span&gt;            od;&lt;br&gt;26&lt;span style=&quot;white-space: pre;&quot;&gt;&amp;nbsp;&amp;nbsp;&amp;nbsp;&amp;nbsp;&lt;/span&gt;            if&lt;br&gt;27&lt;span style=&quot;white-space: pre;&quot;&gt;&amp;nbsp;&amp;nbsp;&amp;nbsp;&amp;nbsp;&lt;/span&gt;              :: (hasSubscription == true &amp;amp;&amp;amp; Sessions[i_1].connected == true) -&amp;gt;&lt;br&gt;28&lt;span style=&quot;white-space: pre;&quot;&gt;&amp;nbsp;&amp;nbsp;&amp;nbsp;&amp;nbsp;&lt;/span&gt;                Deliver(msg, i_1);&lt;br&gt;29&lt;span style=&quot;white-space: pre;&quot;&gt;&amp;nbsp;&amp;nbsp;&amp;nbsp;&amp;nbsp;&lt;/span&gt;              :: else -&amp;gt; skip;&lt;br&gt;30&lt;span style=&quot;white-space: pre;&quot;&gt;&amp;nbsp;&amp;nbsp;&amp;nbsp;&amp;nbsp;&lt;/span&gt;            fi;&lt;br&gt;31&lt;span style=&quot;white-space: pre;&quot;&gt;&amp;nbsp;&amp;nbsp;&amp;nbsp;&amp;nbsp;&lt;/span&gt;&lt;br&gt;32&lt;span style=&quot;white-space: pre;&quot;&gt;&amp;nbsp;&amp;nbsp;&amp;nbsp;&amp;nbsp;&lt;/span&gt;          ...&lt;br&gt;33&lt;span style=&quot;white-space: pre;&quot;&gt;&amp;nbsp;&amp;nbsp;&amp;nbsp;&amp;nbsp;&lt;/span&gt;&lt;br&gt;34&lt;span style=&quot;white-space: pre;&quot;&gt;&amp;nbsp;&amp;nbsp;&amp;nbsp;&amp;nbsp;&lt;/span&gt;        od;&lt;br&gt;35&lt;span style=&quot;white-space: pre;&quot;&gt;&amp;nbsp;&amp;nbsp;&amp;nbsp;&amp;nbsp;&lt;/span&gt;      :: else -&amp;gt; skip;&lt;br&gt;36&lt;span style=&quot;white-space: pre;&quot;&gt;&amp;nbsp;&amp;nbsp;&amp;nbsp;&amp;nbsp;&lt;/span&gt;    fi;&lt;br&gt;37&lt;span style=&quot;white-space: pre;&quot;&gt;&amp;nbsp;&amp;nbsp;&amp;nbsp;&amp;nbsp;&lt;/span&gt;  }&lt;br&gt;38&lt;span style=&quot;white-space: pre;&quot;&gt;&amp;nbsp;&amp;nbsp;&amp;nbsp;&amp;nbsp;&lt;/span&gt;}&lt;br&gt;&lt;/font&gt;&lt;/pre&gt;&lt;/div&gt;&lt;/div&gt;" style="shape=note;whiteSpace=wrap;html=1;backgroundOutline=1;darkOpacity=0.05;align=left;fillColor=#fff2cc;strokeColor=#d6b656;" vertex="1" parent="z7pE8QnRUrmuF2dCIuFo-2">
          <mxGeometry y="100" width="640" height="700" as="geometry" />
        </mxCell>
      </root>
    </mxGraphModel>
  </diagram>
</mxfile>
